<?xml version="1.0" encoding="utf-8"?>
<!-- Generator: Adobe Illustrator 24.2.0, SVG Export Plug-In . SVG Version: 6.00 Build 0)  -->
<svg version="1.1" id="Layer_1" xmlns="http://www.w3.org/2000/svg" xmlns:xlink="http://www.w3.org/1999/xlink" x="0px" y="0px"
	 viewBox="0 0 32 32.7" style="enable-background:new 0 0 32 32.7;" xml:space="preserve">
<style type="text/css">
	.st0{fill:#395398;}
	.st1{fill:#FFFFFF;}
</style>
<g>
	<g>
		<path class="st0" d="M32,16.3c0-8.8-7.2-16-16-16c-8.8,0-16,7.2-16,16c0,8.8,7.2,16,16,16c0,0,0.1,0,0.1,0V21.2h-3.9v-4.5h3.9
			v-3.3c0-3.8,2.3-5.9,5.7-5.9c1.6,0,3,0.1,3.4,0.2v4l-2.4,0c-1.9,0-2.2,0.9-2.2,2.2v2.8h4.4l-0.6,4.5h-3.8v10.5
			C27.3,29.6,32,23.5,32,16.3z"/>
		<path class="st1" d="M24.6,21.2l0.6-4.5h-4.4v-2.8c0-1.3,0.4-2.2,2.2-2.2l2.4,0v-4c-0.4-0.1-1.8-0.2-3.4-0.2
			c-3.4,0-5.7,2.1-5.7,5.9v3.3h-3.9v4.5h3.9v11.2c1.6,0,3.1-0.3,4.6-0.7V21.2H24.6z"/>
	</g>
</g>
</svg>
